<?xml version="1.0" standalone="no"?>
<!DOCTYPE svg PUBLIC "-//W3C//DTD SVG 20010904//EN"
 "http://www.w3.org/TR/2001/REC-SVG-20010904/DTD/svg10.dtd">
<svg version="1.0" xmlns="http://www.w3.org/2000/svg"
 width="300.000000pt" height="292.000000pt" viewBox="0 0 300.000000 292.000000"
 preserveAspectRatio="xMidYMid meet">
<metadata>
Created by potrace 1.10, written by Peter Selinger 2001-2011
</metadata>
<g transform="translate(0.000000,292.000000) scale(0.100000,-0.100000)"
fill="#000000" stroke="none">
<path d="M1186 2723 c-8 -21 -3 -25 39 -32 l35 -6 -55 -62 c-30 -33 -55 -66
-55 -71 0 -11 155 -27 170 -17 5 3 10 13 10 21 0 10 -14 14 -55 14 -30 0 -55
3 -55 6 0 4 25 33 55 66 52 56 65 77 48 79 -8 1 -40 5 -100 13 -22 3 -33 0
-37 -11z m111 -13 c10 0 8 -8 -9 -30 -12 -16 -26 -30 -31 -30 -6 0 -3 8 6 18
22 24 21 32 0 32 -10 0 -25 5 -33 11 -11 8 -7 9 19 5 18 -3 40 -6 48 -6z m-71
-101 c-14 -17 -26 -34 -26 -39 0 -5 21 -11 48 -13 42 -3 41 -4 -15 -5 -35 -1
-63 0 -63 3 0 7 71 85 77 85 3 0 -7 -14 -21 -31z"/>
<path d="M840 2583 c-65 -6 -80 -13 -80 -33 0 -26 9 -29 58 -20 25 4 42 4 42
-2 0 -5 -22 -50 -50 -100 -27 -50 -50 -94 -50 -98 0 -18 34 -17 126 3 87 19
99 25 102 45 4 26 -8 28 -90 8 -32 -7 -58 -11 -58 -9 0 2 23 46 50 97 28 51
50 98 50 104 0 12 -25 13 -100 5z m72 -30 c-4 -10 -27 -56 -50 -102 -24 -45
-41 -85 -39 -88 3 -2 31 0 63 6 69 13 77 13 70 3 -3 -5 -31 -14 -63 -21 -32
-7 -65 -14 -74 -17 -32 -9 -27 25 16 107 56 106 57 113 5 105 -23 -4 -40 -2
-40 3 0 11 28 18 82 20 32 1 36 -2 30 -16z"/>
<path d="M1105 2363 c-77 -68 -90 -95 -46 -101 16 -3 35 8 62 34 22 21 39 34
40 29 5 -87 37 -289 47 -293 15 -5 197 184 197 205 0 9 -8 21 -18 27 -16 9
-27 2 -78 -53 -32 -36 -60 -63 -62 -60 -2 2 -9 51 -16 109 -18 157 -21 170
-36 170 -8 0 -48 -30 -90 -67z m108 -93 c9 -72 19 -135 23 -141 4 -7 32 14 70
52 35 35 64 58 64 51 0 -7 -5 -12 -11 -12 -5 0 -7 -4 -4 -10 3 -5 -3 -15 -15
-22 -11 -7 -20 -18 -20 -23 0 -6 -22 -32 -48 -58 l-49 -48 -11 38 c-17 56 -20
103 -8 103 7 0 6 4 -1 8 -7 4 -17 36 -21 70 -5 34 -11 65 -15 68 -3 4 -24 -9
-46 -28 -39 -33 -75 -46 -64 -24 9 19 113 106 126 106 10 0 18 -37 30 -130z"/>
<path d="M1823 2365 c-3 -9 -3 -19 1 -22 3 -4 6 -1 6 5 0 7 5 12 10 12 6 0 10
-11 10 -25 0 -21 -3 -24 -17 -17 -10 5 -27 8 -38 7 -11 -1 -29 -2 -41 -3 -12
-1 -31 -11 -44 -22 -28 -24 -47 -12 -31 19 9 17 8 22 -9 31 -32 17 -102 -28
-129 -83 -23 -47 -27 -116 -10 -148 8 -16 7 -25 -7 -40 -9 -10 -25 -19 -36
-19 -10 0 -26 -9 -36 -20 -9 -12 -49 -36 -88 -55 -50 -24 -87 -51 -119 -87
-75 -83 -92 -128 -124 -321 -65 -388 -73 -439 -67 -444 3 -4 6 2 7 13 0 10 8
-1 17 -26 11 -28 30 -53 51 -67 l34 -23 -40 0 c-39 0 -40 1 -50 42 -6 24 -11
33 -12 21 0 -12 3 -33 9 -47 l10 -26 356 0 c195 0 354 -4 352 -8 -1 -4 -142
-173 -313 -376 -251 -298 -311 -363 -313 -344 -8 59 -103 598 -113 641 l-11
47 -246 2 c-136 1 -298 0 -359 -1 -62 -1 -113 1 -113 4 0 3 35 47 79 98 114
133 405 479 480 570 35 42 65 76 66 75 2 -2 17 -84 35 -183 17 -99 38 -209 45
-245 26 -119 8 16 -32 243 -35 202 -35 208 -17 228 28 31 8 53 -52 57 l-49 2
-102 -122 c-112 -136 -283 -339 -443 -528 -58 -68 -115 -137 -128 -154 l-22
-30 27 -28 c37 -39 61 -45 79 -19 15 21 21 21 379 21 l365 0 5 -23 c2 -12 30
-168 60 -347 31 -178 58 -326 60 -329 3 -2 -5 -17 -16 -33 l-21 -29 27 -29 28
-29 -74 -4 c-41 -1 19 -4 134 -5 114 -1 207 1 207 6 0 4 -50 6 -111 4 -75 -2
-109 0 -105 7 4 6 84 102 179 214 153 182 476 565 484 576 7 9 13 -8 32 -96
33 -152 41 -175 56 -169 16 6 20 2 29 -37 4 -17 3 -26 -3 -23 -15 10 -21 -21
-21 -105 l0 -79 -45 0 c-26 0 -45 -5 -45 -11 0 -7 21 -9 63 -5 34 4 130 11
212 16 408 26 490 32 494 36 2 2 -14 4 -37 4 -41 0 -42 1 -42 34 0 50 -32 79
-125 115 -58 23 -89 42 -112 69 -29 34 -33 36 -54 24 -20 -13 -21 -12 -15 12
4 15 2 46 -4 69 -23 86 -23 84 4 53 18 -22 28 -27 38 -20 7 6 115 82 241 169
125 87 227 163 227 169 0 6 -13 26 -29 44 -34 37 -53 39 -171 18 -64 -12 -79
-12 -102 0 -35 18 -65 18 -75 -1 -8 -13 -12 -13 -28 -1 -16 12 -17 16 -6 30 8
9 12 18 10 20 -2 2 -69 56 -149 120 -80 65 -148 126 -152 137 -4 10 -16 19
-27 19 -11 0 -25 9 -31 20 -6 11 -16 20 -23 20 -7 0 -23 9 -37 20 -14 11 -34
20 -45 20 -18 0 -18 2 5 20 l25 19 5 318 c4 235 2 323 -6 336 -18 27 -66 51
-74 36 -6 -8 -9 -8 -14 0 -10 16 -26 14 -33 -4z m77 -56 c3 14 11 26 18 29 9
3 11 -7 7 -40 -5 -42 -5 -42 6 -9 5 18 11 32 12 30 1 -2 0 -144 -3 -316 -6
-380 4 -359 -152 -339 l-58 7 0 110 c0 109 0 110 23 105 12 -3 16 -3 10 0 -9
4 -11 18 -6 47 7 43 51 97 79 97 12 0 14 5 9 18 -4 9 -10 40 -12 69 -4 40 -1
58 14 80 29 41 33 58 21 90 -7 20 -7 36 3 58 l13 30 6 -45 c4 -33 7 -39 10
-21z m-252 -30 c14 -22 28 -22 132 -4 29 5 37 3 48 -14 10 -17 10 -21 -2 -21
-8 0 -17 -11 -20 -24 -9 -35 -38 -40 -81 -15 -36 22 -37 22 -63 2 -15 -11 -33
-34 -41 -51 -8 -18 -20 -32 -26 -32 -32 0 -47 60 -25 101 8 13 7 19 0 19 -10
0 49 59 60 60 3 0 11 -9 18 -21z m72 -118 c10 -20 70 -55 78 -46 3 3 0 5 -6 5
-19 0 -14 14 9 28 21 13 21 12 16 -20 -2 -19 2 -45 9 -60 13 -25 13 -28 -3
-28 -9 0 -28 -14 -42 -31 -22 -25 -33 -30 -66 -29 -71 2 -84 4 -82 15 1 5 -5
10 -14 10 -20 0 -99 36 -99 45 0 3 6 14 13 23 10 14 18 14 53 5 32 -9 49 -9
73 1 32 14 42 31 17 31 -19 0 -28 28 -16 51 14 25 46 25 60 0z m-163 -148 c63
-33 93 -64 93 -95 0 -10 -2 -18 -4 -18 -7 0 -180 101 -191 111 -7 7 -3 15 10
25 10 8 22 13 25 12 3 -2 33 -18 67 -35z m-89 -49 c19 -6 22 -13 22 -60 0 -38
4 -54 13 -54 9 0 12 11 9 36 -4 34 -3 36 19 29 26 -8 82 -45 87 -57 5 -12 32
-10 32 2 0 6 8 10 18 10 14 0 15 -2 2 -10 -12 -8 -10 -10 8 -10 16 0 21 -4 15
-12 -4 -7 -6 -39 -4 -71 2 -49 -1 -64 -22 -95 -14 -20 -28 -53 -31 -74 -6 -32
-21 -48 -46 -48 -10 0 -19 23 -26 65 -7 46 -71 189 -77 173 -3 -7 -6 2 -6 20
-1 25 -5 32 -21 32 -11 0 -20 -2 -20 -4 0 -2 23 -52 50 -112 33 -70 47 -110
40 -114 -8 -5 -3 -31 14 -81 14 -41 26 -65 26 -54 0 19 12 22 163 40 89 11
172 19 185 18 12 0 22 5 22 12 0 19 38 48 55 41 13 -4 14 -10 5 -26 -11 -20
-9 -21 23 -15 45 9 59 -11 26 -36 l-23 -17 33 1 c42 2 53 -20 15 -29 -27 -7
-27 -7 -6 -15 31 -12 28 -29 -5 -29 -26 0 -26 -1 -7 -14 18 -14 18 -15 -6 -24
-14 -5 -45 -13 -70 -17 -25 -3 -128 -22 -230 -40 -284 -52 -323 -57 -353 -46
-32 12 -45 37 -87 162 -26 79 -35 96 -50 92 -14 -4 -18 5 -23 58 -9 83 -9 109
2 109 5 0 11 -31 13 -69 2 -39 7 -73 11 -77 7 -7 21 -4 174 42 l81 25 -50 109
-51 110 -48 -6 c-26 -4 -68 -3 -94 0 l-45 7 51 44 c52 45 121 84 149 84 8 1
25 -2 38 -5z m278 -19 c-3 -11 -6 -27 -6 -35 0 -9 -3 -11 -8 -4 -4 5 -23 15
-42 20 -19 5 -36 17 -38 25 -2 13 7 16 48 15 46 -1 50 -3 46 -21z m-354 -142
c9 -10 28 -46 43 -81 28 -63 27 -82 -7 -88 -7 -1 -39 -9 -70 -19 -32 -9 -62
-14 -68 -10 -5 3 -10 24 -10 45 0 29 -6 43 -22 55 -22 15 -24 14 -41 -7 -27
-32 -15 -148 19 -199 13 -19 24 -40 24 -47 0 -7 8 -12 18 -13 9 0 12 -3 5 -5
-7 -3 -10 -18 -6 -38 5 -31 3 -34 -67 -74 -40 -23 -77 -42 -83 -42 -13 0 -1
118 14 136 9 11 7 14 -7 15 -17 1 -17 2 -1 6 9 2 15 8 12 12 -6 10 31 243 46
288 5 17 19 43 30 57 18 23 27 26 88 26 52 0 71 -4 83 -17z m-446 -25 c4 -7
-8 -23 -30 -41 -21 -17 -52 -49 -70 -73 -18 -23 -58 -71 -89 -106 -67 -76
-100 -118 -94 -118 3 0 -14 -20 -39 -44 -24 -25 -44 -47 -44 -50 0 -3 -8 -14
-17 -24 -10 -10 -43 -47 -73 -82 -30 -35 -61 -69 -67 -76 -7 -7 -13 -20 -13
-28 0 -9 -5 -16 -11 -16 -14 0 -63 -58 -70 -84 -3 -12 -11 -20 -17 -19 -6 2
-14 -6 -17 -17 -6 -19 -54 -30 -56 -12 0 4 -2 17 -3 29 -1 12 1 21 4 20 9 -2
70 64 70 76 0 5 5 5 10 2 6 -3 10 -1 10 5 0 10 100 137 150 190 52 55 99 118
93 124 -4 3 0 6 8 6 8 0 31 21 51 48 20 26 60 72 87 102 28 30 51 59 51 63 0
5 19 29 43 54 23 25 50 54 60 64 19 21 62 25 73 7z m859 -128 c27 0 22 -5 -40
-39 -38 -21 -74 -39 -80 -40 -5 -1 -10 16 -10 37 0 34 2 37 28 34 16 -2 27 1
27 8 0 8 8 10 23 6 12 -3 36 -6 52 -6z m133 -36 l24 -16 -24 -24 c-21 -22 -40
-26 -162 -39 -75 -8 -143 -18 -149 -21 -8 -5 -9 -4 -2 3 6 6 60 36 120 67 117
61 140 64 193 30z m331 -266 c1 -4 -27 -37 -60 -73 -34 -36 -59 -68 -57 -71 3
-3 34 27 69 65 l64 70 37 -32 37 -32 -94 -100 c-52 -55 -95 -103 -95 -107 0
-20 -30 -1 -133 84 -62 50 -119 98 -129 105 -14 13 -28 5 -125 -72 -59 -47
-128 -99 -152 -116 l-44 -29 -204 0 c-226 0 -246 4 -281 62 -11 18 -22 48 -24
67 -3 32 1 36 57 71 33 20 90 53 127 74 l67 37 15 -35 c25 -60 64 -68 216 -41
47 9 121 22 165 30 277 49 322 58 343 71 12 8 20 19 17 24 -3 4 0 10 6 12 6 2
13 15 14 28 1 14 3 29 4 33 1 9 159 -114 160 -125z m-245 -203 c69 -58 131
-105 137 -105 19 0 48 -31 43 -45 -3 -7 3 -33 14 -57 11 -23 22 -57 25 -75 6
-31 6 -32 -46 -42 -29 -6 -70 -13 -92 -17 -45 -7 -81 -23 -55 -24 8 0 47 7 85
15 107 22 122 21 127 -15 3 -16 2 -30 -1 -30 -3 0 -33 -4 -66 -10 -33 -5 -76
-12 -95 -14 -19 -3 -53 -10 -75 -15 -22 -6 -43 -11 -46 -11 -4 0 -21 59 -39
131 -28 115 -30 135 -19 156 13 24 11 27 -21 54 -40 34 -65 37 -80 9 -8 -15
-21 -20 -50 -20 -22 0 -40 3 -40 6 0 11 152 214 160 214 5 0 65 -47 134 -105z
m357 72 c14 -12 33 -35 43 -51 l18 -28 -34 -35 c-18 -19 -64 -50 -102 -69
l-70 -35 -29 30 -30 29 83 91 c46 50 86 91 89 91 3 -1 17 -11 32 -23z m91 7
c28 -14 39 -14 129 1 74 12 103 13 119 5 11 -6 18 -15 15 -19 -2 -5 -93 -70
-201 -146 -170 -118 -198 -135 -207 -120 -5 9 -28 25 -51 36 -23 10 -33 19
-22 19 30 0 131 59 170 99 l37 38 -25 37 c-23 35 -26 66 -4 66 5 0 23 -7 40
-16z m292 -43 c5 -8 -421 -313 -457 -327 -35 -13 -25 18 15 46 24 16 126 88
228 159 102 72 190 130 197 131 6 0 14 -4 17 -9z m-873 -149 l31 -28 -31 -27
c-18 -15 -38 -30 -44 -34 -12 -7 -45 -47 -161 -187 -22 -26 -54 -64 -72 -84
-18 -20 -30 -40 -28 -44 3 -5 1 -8 -5 -8 -6 0 -25 -20 -44 -45 -19 -24 -37
-42 -41 -38 -3 3 -6 1 -6 -5 0 -7 -8 -20 -17 -31 -67 -71 -93 -102 -93 -110 0
-6 -9 -16 -20 -24 -11 -7 -36 -36 -57 -63 -20 -27 -43 -53 -50 -57 -7 -4 -13
-13 -13 -18 0 -15 -22 -35 -47 -41 -16 -4 -20 -2 -16 8 3 8 1 14 -5 14 -7 0
-6 10 1 29 6 16 15 29 20 28 5 -1 30 23 55 53 24 30 71 84 102 120 32 36 75
88 95 115 21 28 43 53 49 57 6 4 8 8 4 8 -4 0 12 19 35 43 23 23 60 65 82 92
35 43 68 81 151 177 13 15 24 35 24 43 0 8 5 15 12 15 6 0 8 3 5 6 -8 8 31 64
44 64 5 0 23 -13 40 -28z m390 -68 c47 -24 52 -38 20 -62 -33 -24 -36 -22 -70
46 l-22 44 23 -7 c13 -4 35 -13 49 -21z m-15 -258 c3 -13 4 -38 2 -57 -3 -33
-4 -34 -61 -43 -34 -5 -84 -5 -119 0 -58 9 -60 10 -73 47 -7 20 -12 37 -11 38
4 3 206 37 228 38 21 1 29 -5 34 -23z m73 -24 c14 -20 49 -41 111 -66 49 -21
97 -47 105 -59 8 -11 13 -22 12 -24 -6 -6 -471 -34 -483 -29 -8 3 -14 14 -14
24 0 11 -9 30 -19 44 l-20 24 85 -4 c50 -3 102 0 128 8 43 12 44 13 39 46 -11
66 20 86 56 36z m-284 -151 c7 -28 7 -29 -33 -37 l-32 -6 0 54 c0 30 3 58 7
62 9 9 50 -42 58 -73z m515 -36 c0 -8 -8 -15 -17 -15 -10 0 -136 -7 -281 -17
-198 -12 -265 -14 -274 -5 -6 6 -9 14 -7 17 3 2 90 9 195 15 104 6 198 12 209
14 11 2 55 4 98 5 62 1 77 -2 77 -14z"/>
<path d="M2320 2315 c0 -33 2 -35 35 -35 33 0 35 -2 32 -27 -3 -23 -10 -29
-44 -36 -57 -11 -142 -65 -179 -114 -136 -179 -74 -422 132 -515 73 -33 190
-30 262 6 75 38 127 89 162 158 26 53 30 72 30 142 0 69 -4 90 -29 141 -44 93
-135 167 -219 181 -38 6 -42 9 -42 35 0 25 4 29 30 29 23 0 31 5 36 24 3 14 3
30 -1 35 -4 7 -47 11 -106 11 l-99 0 0 -35z m190 0 c0 -25 -1 -25 -90 -25 -89
0 -90 0 -90 25 0 25 1 25 90 25 89 0 90 0 90 -25z m-60 -60 c0 -20 -5 -25 -25
-25 -20 0 -25 5 -25 25 0 20 5 25 25 25 20 0 25 -5 25 -25z m112 -79 c142 -67
209 -232 157 -385 -56 -164 -242 -252 -404 -190 -86 32 -168 115 -190 194 -53
179 37 348 215 406 50 17 162 4 222 -25z"/>
<path d="M2305 2146 c-134 -62 -194 -227 -133 -366 78 -175 315 -216 450 -77
62 64 92 179 69 264 -44 162 -233 251 -386 179z m192 -1 c151 -45 230 -223
160 -361 -100 -197 -368 -199 -466 -3 -61 122 -25 257 88 332 71 47 135 56
218 32z"/>
<path d="M2356 1994 c27 -42 34 -62 29 -83 -7 -33 13 -54 47 -49 30 4 38 52
11 66 -10 6 -22 9 -27 9 -5 -1 -25 24 -43 56 -19 31 -38 57 -43 57 -6 0 6 -25
26 -56z"/>
<path d="M927 1328 c-19 -24 -53 -77 -76 -118 -52 -91 -68 -112 -115 -143
l-36 -25 133 -4 c246 -7 255 -20 337 -510 13 -76 26 -138 29 -138 3 1 20 18
36 39 50 65 386 464 424 504 l35 37 -209 0 c-147 -1 -228 -5 -270 -15 -55 -13
-63 -13 -95 3 -49 25 -74 82 -105 237 -35 178 -34 175 -45 175 -5 0 -24 -19
-43 -42z m68 -113 c13 -66 29 -135 35 -154 5 -19 8 -36 6 -38 -1 -2 -19 4 -39
12 -24 10 -70 15 -139 15 l-102 0 31 33 c17 17 52 70 78 117 43 76 94 145 101
137 2 -2 15 -57 29 -122z m655 -260 c0 -7 -433 -520 -441 -523 -5 -2 -9 1 -9
7 0 29 -72 422 -84 457 l-14 41 47 -4 c25 -2 67 2 94 9 41 11 407 23 407 13z"/>
</g>
</svg>
